<svg width="58" height="40" viewBox="0 0 58 40" fill="none" xmlns="http://www.w3.org/2000/svg">
<path d="M24.093 36C24.301 36.58 24.851 37 25.5 37H33.5C34.149 37 34.7 36.58 34.907 36H55V3.067C55 1.373 53.627 0 51.933 0H6.067C4.373 0 3 1.373 3 3.067V36H24.093Z" fill="#38454F"/>
<path d="M52 3H6V33H52V3Z" fill="#546A79"/>
<path d="M11.0002 13.0003C11.2562 13.0003 11.5122 12.9023 11.7072 12.7073L15.7072 8.70725C16.0982 8.31625 16.0982 7.68425 15.7072 7.29325C15.3162 6.90225 14.6842 6.90225 14.2933 7.29325L10.2932 11.2933C9.90225 11.6842 9.90225 12.3163 10.2932 12.7073C10.4882 12.9023 10.7442 13.0003 11.0002 13.0003Z" fill="#839CAA"/>
<path d="M11.0002 18.0003C11.2562 18.0003 11.5122 17.9023 11.7072 17.7073L13.7072 15.7073C14.0982 15.3163 14.0982 14.6842 13.7072 14.2932C13.3162 13.9022 12.6843 13.9022 12.2933 14.2932L10.2932 16.2933C9.90225 16.6843 9.90225 17.3163 10.2932 17.7073C10.4882 17.9023 10.7442 18.0003 11.0002 18.0003Z" fill="#839CAA"/>
<path d="M14.29 12.2904C14.109 12.4804 14 12.7404 14 13.0004C14 13.2604 14.109 13.5204 14.29 13.7104C14.479 13.8904 14.74 14.0004 15 14.0004C15.26 14.0004 15.52 13.8904 15.71 13.7104C15.89 13.5204 16 13.2604 16 13.0004C16 12.7404 15.89 12.4804 15.71 12.2904C15.34 11.9204 14.649 11.9304 14.29 12.2904Z" fill="#839CAA"/>
<path d="M16.2932 11.7073C16.4882 11.9023 16.7443 12.0003 17.0003 12.0003C17.2563 12.0003 17.5123 11.9023 17.7073 11.7073L20.7073 8.70725C21.0983 8.31625 21.0983 7.68425 20.7073 7.29325C20.3163 6.90225 19.6843 6.90225 19.2933 7.29325L16.2932 10.2933C15.9022 10.6843 15.9022 11.3163 16.2932 11.7073Z" fill="#839CAA"/>
<path d="M19.2932 12.2932L10.2932 21.2933C9.90225 21.6842 9.90225 22.3163 10.2932 22.7073C10.4882 22.9023 10.7442 23.0003 11.0002 23.0003C11.2562 23.0003 11.5122 22.9023 11.7072 22.7073L20.7073 13.7073C21.0983 13.3163 21.0983 12.6842 20.7073 12.2932C20.3163 11.9022 19.6842 11.9022 19.2932 12.2932Z" fill="#839CAA"/>
<path d="M21.29 10.2902C21.109 10.4802 21 10.7402 21 11.0002C21 11.2602 21.109 11.5202 21.29 11.7102C21.479 11.8902 21.74 12.0002 22 12.0002C22.26 12.0002 22.52 11.8902 22.71 11.7102C22.89 11.5202 23 11.2602 23 11.0002C23 10.7302 22.89 10.4802 22.71 10.2902C22.34 9.9202 21.67 9.9202 21.29 10.2902Z" fill="#839CAA"/>
<path d="M25.7073 7.29325C25.3163 6.90225 24.6842 6.90225 24.2932 7.29325L23.2932 8.29325C22.9022 8.68425 22.9022 9.31625 23.2932 9.70725C23.4882 9.90225 23.7443 10.0003 24.0003 10.0003C24.2563 10.0003 24.5123 9.90225 24.7073 9.70725L25.7073 8.70725C26.0983 8.31625 26.0983 7.68425 25.7073 7.29325Z" fill="#839CAA"/>
<path d="M34.907 36C34.699 36.58 34.149 37 33.5 37H25.5C24.851 37 24.3 36.58 24.093 36H0.578C0.259 36 0 36.259 0 36.578V39.422C0 39.741 0.259 40 0.578 40H57.422C57.741 40 58 39.741 58 39.422V36.578C58 36.259 57.741 36 57.422 36H34.907Z" fill="#AFB6BB"/>
</svg>
